<?xml version="1.0" standalone="no"?>
<!DOCTYPE svg PUBLIC "-//W3C//DTD SVG 20010904//EN"
 "http://www.w3.org/TR/2001/REC-SVG-20010904/DTD/svg10.dtd">
<svg version="1.0" xmlns="http://www.w3.org/2000/svg"
 width="1123.000000pt" height="1123.000000pt" viewBox="0 0 1123.000000 1123.000000"
 preserveAspectRatio="xMidYMid meet">
<metadata>
Created by potrace 1.14, written by Peter Selinger 2001-2017
</metadata>
<g transform="translate(0.000000,1123.000000) scale(0.100000,-0.100000)"
fill="#000000" stroke="none">
<path d="M2469 8854 c-12 -56 -14 -374 -13 -2053 1 -1092 2 -1988 3 -1991 2
-8 52 -27 86 -34 17 -4 41 -9 55 -12 14 -3 86 -4 160 -4 134 2 3751 2 3780 1
13 -1 15 -31 14 -223 -1 -123 -2 -225 -3 -228 -2 -9 -211 -5 -211 3 0 5 -5 5
-12 1 -18 -11 -118 -11 -118 1 0 7 -3 7 -8 0 -8 -12 -342 -14 -342 -2 0 5 -5
5 -12 1 -17 -11 -100 -12 -120 -2 -10 5 -18 5 -18 1 0 -4 -74 -8 -165 -8 -91
0 -165 4 -165 8 0 5 -5 5 -12 1 -18 -11 -112 -10 -120 1 -5 7 -8 7 -8 0 0 -8
-128 -10 -255 -4 -5 0 -32 -2 -58 -4 -26 -2 -50 0 -53 4 -3 5 -15 5 -27 1 -12
-4 -56 -6 -97 -5 -96 4 -77 4 -212 1 -65 -2 -118 1 -118 5 0 5 -5 5 -12 1 -18
-11 -118 -11 -118 1 0 7 -3 7 -8 0 -8 -12 -342 -14 -342 -2 0 5 -5 5 -12 1
-17 -11 -100 -12 -120 -2 -10 5 -18 5 -18 1 0 -4 -74 -8 -165 -8 -91 0 -165 4
-165 8 0 5 -5 5 -12 1 -18 -11 -112 -10 -120 1 -5 7 -8 7 -8 0 0 -8 -128 -10
-255 -4 -5 0 -32 -2 -58 -4 -26 -2 -50 0 -53 4 -3 5 -15 5 -27 1 -12 -4 -56
-6 -97 -5 -141 5 -345 0 -343 -9 1 -4 -3 -22 -8 -40 -23 -79 -27 -228 -19
-685 3 -150 3 -152 29 -176 92 -84 187 -96 466 -61 90 11 126 14 180 14 33 0
71 -3 85 -6 40 -10 4653 -12 4673 -2 9 5 17 15 17 22 0 8 7 19 15 26 9 7 13
15 10 18 -3 3 1 12 9 21 15 17 178 335 213 416 32 74 102 244 104 253 1 4 6
18 11 32 6 14 11 30 12 35 12 47 20 72 27 80 4 6 8 13 8 18 1 4 1 8 2 10 0 1
2 11 4 22 2 11 17 76 34 144 16 68 32 145 35 170 3 25 9 69 13 96 13 97 6 426
-12 477 -2 7 -6 29 -9 48 -11 68 -27 131 -58 225 -20 61 -22 68 -53 140 -30
71 -107 219 -136 262 -16 23 -29 45 -29 50 0 5 -13 24 -30 43 -16 19 -29 40
-30 45 0 10 -29 47 -72 94 -27 29 -59 42 -161 66 -10 2 -26 6 -35 9 -16 5 -30
8 -117 22 -16 3 -37 7 -45 9 -8 2 -42 6 -75 10 -33 3 -73 7 -90 10 -76 12
-114 16 -170 20 -33 3 -76 6 -95 9 -43 5 -178 17 -239 21 -76 5 -212 15 -276
20 -109 8 -249 17 -335 21 -47 2 -119 6 -160 8 -41 2 -129 7 -195 10 -159 9
-267 15 -400 23 -60 4 -656 7 -1322 7 -667 1 -1213 3 -1214 6 -1 3 -2 240 -3
527 l-1 522 150 -5 c83 -3 200 -7 260 -10 61 -2 160 -6 220 -9 112 -4 353 -13
525 -20 52 -2 163 -7 245 -9 83 -3 150 -6 150 -7 0 -1 36 -2 315 -13 74 -3
212 -8 305 -12 94 -4 209 -7 257 -8 49 -1 88 -3 88 -6 0 -3 19 -4 42 -4 41 1
41 1 72 70 16 38 35 72 41 76 5 4 7 8 2 8 -4 0 -1 13 8 30 8 16 15 31 15 32
-1 4 9 36 20 64 10 25 50 166 56 197 10 56 17 105 18 139 0 21 4 38 7 38 3 0
3 23 -1 50 -4 28 -2 50 2 50 5 0 7 3 5 8 -3 4 -7 34 -11 67 -13 130 -40 225
-113 405 -30 74 -56 142 -59 150 -4 15 -23 93 -24 98 0 1 0 11 0 22 0 31 -60
23 -282 -35 -10 -3 -26 -7 -35 -9 -88 -21 -120 -29 -133 -33 -8 -4 -19 -7 -25
-8 -5 -1 -13 -3 -17 -5 -10 -3 -13 -4 -58 -13 -47 -10 -76 -16 -102 -23 -13
-3 -37 -7 -54 -8 -17 -2 -35 -6 -40 -9 -5 -3 -27 -8 -49 -11 -22 -4 -47 -8
-55 -11 -15 -4 -38 -7 -165 -26 -220 -32 -341 -40 -580 -40 -195 -1 -307 5
-323 15 -7 4 -12 2 -12 -4 0 -6 -4 -8 -10 -5 -5 3 -26 8 -47 10 -97 12 -181
23 -210 29 -11 3 -43 8 -70 12 -26 5 -50 9 -53 9 -22 6 -66 16 -125 30 -131
30 -407 117 -492 156 -48 22 -84 36 -96 38 -4 0 -29 12 -57 26 -27 14 -53 25
-58 25 -5 0 -16 -30 -23 -66z"/>
</g>
</svg>
